<svg xmlns="http://www.w3.org/2000/svg" version="1.1" xmlns:xlink="http://www.w3.org/1999/xlink" xmlns:svgjs="http://svgjs.com/svgjs" width="1440" height="560" preserveAspectRatio="none" viewBox="0 0 1440 560"><g mask="url(&quot;#SvgjsMask1144&quot;)" fill="none"><rect width="1440" height="560" x="0" y="0" fill="url(#SvgjsLinearGradient1145)"></rect><path d="M1440 0L1187.73 0L1440 48.83z" fill="rgba(255, 255, 255, .1)"></path><path d="M1187.73 0L1440 48.83L1440 305.75L1088.49 0z" fill="rgba(255, 255, 255, .075)"></path><path d="M1088.49 0L1440 305.75L1440 336.31L861.1800000000001 0z" fill="rgba(255, 255, 255, .05)"></path><path d="M861.1800000000001 0L1440 336.31L1440 460.7L688.3600000000001 0z" fill="rgba(255, 255, 255, .025)"></path><path d="M0 560L529.11 560L0 438.93z" fill="rgba(0, 0, 0, .1)"></path><path d="M0 438.93L529.11 560L676.54 560L0 257.77z" fill="rgba(0, 0, 0, .075)"></path><path d="M0 257.77L676.54 560L765.72 560L0 172.90999999999997z" fill="rgba(0, 0, 0, .05)"></path><path d="M0 172.90999999999997L765.72 560L816.0600000000001 560L0 55.339999999999975z" fill="rgba(0, 0, 0, .025)"></path></g><defs><mask id="SvgjsMask1144"><rect width="1440" height="560" fill="#ffffff"></rect></mask><linearGradient x1="84.72%" y1="139.29%" x2="15.28%" y2="-39.29%" gradientUnits="userSpaceOnUse" id="SvgjsLinearGradient1145"><stop stop-color="rgba(195, 51, 51, 0.32)" offset="0"></stop><stop stop-color="rgba(255, 255, 255, 0)" offset="1"></stop></linearGradient></defs></svg>