<?xml version="1.0" standalone="no"?><svg xmlns="http://www.w3.org/2000/svg" viewBox="0 0 1440 320"><path fill="#f3f4f5" fill-opacity="1" d="M0,192L34.3,186.7C68.6,181,137,171,206,154.7C274.3,139,343,117,411,133.3C480,149,549,203,617,224C685.7,245,754,235,823,213.3C891.4,192,960,160,1029,128C1097.1,96,1166,64,1234,69.3C1302.9,75,1371,117,1406,138.7L1440,160L1440,320L1405.7,320C1371.4,320,1303,320,1234,320C1165.7,320,1097,320,1029,320C960,320,891,320,823,320C754.3,320,686,320,617,320C548.6,320,480,320,411,320C342.9,320,274,320,206,320C137.1,320,69,320,34,320L0,320Z"></path></svg>